Coordinates
version=1
nRows=20
nColumns=38
inDegrees=no

Units are S.I. units (second, meters, Newtons, ...)
If the header above contains a line with 'inDegrees', this indicates whether rotational values are in degrees (yes) or radians (no).

endheader
time	pelvis_tilt	pelvis_list	pelvis_rotation	pelvis_tx	pelvis_ty	pelvis_tz	hip_flexion_r	hip_adduction_r	hip_rotation_r	knee_angle_r	ankle_angle_r	subtalar_angle_r	mtp_angle_r	hip_flexion_l	hip_adduction_l	hip_rotation_l	knee_angle_l	ankle_angle_l	subtalar_angle_l	mtp_angle_l	lumbar_extension	lumbar_bending	lumbar_rotation	arm_flex_r	arm_add_r	arm_rot_r	elbow_flex_r	pro_sup_r	wrist_flex_r	wrist_dev_r	arm_flex_l	arm_add_l	arm_rot_l	elbow_flex_l	pro_sup_l	wrist_flex_l	wrist_dev_l
1.62	-0.586273	1.47908	-0.907321	0.721429	0.513645	0.925817	-0.339486	0.0800288	-0.192119	0.339088	-0.093052	0	0	0.272442	-0.0579804	-0.151961	0.261013	-0.26013	0	0	-0.153346	0.0743401	0.0682726	0.0413738	-0.312346	0.189858	0.852291	1.5708	0	0	-0.0986563	-0.279407	0.361282	0.708182	1.5708	0	0
1.63	-0.543271	1.47842	-0.952701	0.722206	0.502664	0.92548	-0.346912	0.0738668	-0.192181	0.353159	-0.0987224	0	0	0.264508	-0.0537295	-0.15917	0.278045	-0.256335	0	0	-0.154697	0.0696898	0.0726271	0.0369556	-0.310764	0.190929	0.849623	1.5708	0	0	-0.101087	-0.283075	0.369459	0.707321	1.5708	0	0
1.64	-0.509466	1.47928	-0.98841	0.723074	0.491642	0.925322	-0.350903	0.0675512	-0.191263	0.369249	-0.10658	0	0	0.25748	-0.0483007	-0.162107	0.284992	-0.261933	0	0	-0.15409	0.0651769	0.0763273	0.0318577	-0.308686	0.191244	0.84651	1.5708	0	0	-0.10217	-0.284158	0.373937	0.704189	1.5708	0	0
1.65	-0.474473	1.48097	-1.02388	0.724122	0.480743	0.925429	-0.352154	0.0605147	-0.191144	0.388818	-0.116954	0	0	0.251103	-0.0421371	-0.161317	0.286975	-0.278206	0	0	-0.152861	0.0602659	0.0785032	0.02682	-0.305986	0.191065	0.842441	1.5708	0	0	-0.101939	-0.283941	0.377057	0.699105	1.5708	0	0
1.66	-0.434202	1.48332	-1.06409	0.725256	0.469812	0.925787	-0.351345	0.0523474	-0.191198	0.411416	-0.128782	0	0	0.244154	-0.0357269	-0.158696	0.287058	-0.299191	0	0	-0.150908	0.0546417	0.079603	0.0216107	-0.302395	0.190183	0.837184	1.5708	0	0	-0.101741	-0.28306	0.378132	0.693093	1.5708	0	0
1.67	-0.390053	1.48611	-1.10887	0.726417	0.458625	0.926329	-0.348729	0.0429887	-0.190475	0.436372	-0.141954	0	0	0.236838	-0.0297995	-0.157336	0.288534	-0.315675	0	0	-0.147794	0.0485392	0.0807732	0.0156147	-0.298374	0.189249	0.831183	1.5708	0	0	-0.102453	-0.282117	0.378703	0.686715	1.5708	0	0
1.68	-0.354146	1.49029	-1.14683	0.727587	0.446917	0.9269	-0.342846	0.0326905	-0.188497	0.463925	-0.15769	0	0	0.231487	-0.0255037	-0.16001	0.294158	-0.326155	0	0	-0.141362	0.0426503	0.0829662	0.007547	-0.294561	0.18872	0.825196	1.5708	0	0	-0.104643	-0.280859	0.378945	0.679773	1.5708	0	0
1.69	-0.324732	1.49291	-1.17662	0.72897	0.435214	0.927625	-0.336202	0.0235415	-0.187643	0.494439	-0.176478	0	0	0.227658	-0.0233954	-0.162955	0.307656	-0.331699	0	0	-0.135932	0.0384962	0.0838564	-0.00204881	-0.291866	0.188276	0.82162	1.5708	0	0	-0.10667	-0.280043	0.380139	0.674016	1.5708	0	0
1.7	-0.292755	1.49319	-1.20713	0.730564	0.423674	0.928681	-0.32977	0.0150114	-0.18794	0.527988	-0.198924	0	0	0.222127	-0.0217881	-0.163769	0.323287	-0.335179	0	0	-0.13311	0.0354426	0.083426	-0.0121113	-0.289945	0.187769	0.819583	1.5708	0	0	-0.107368	-0.279614	0.383441	0.668935	1.5708	0	0
1.71	-0.255293	1.49214	-1.24217	0.732308	0.412257	0.93008	-0.322356	0.00590536	-0.188319	0.564491	-0.225616	0	0	0.21357	-0.0191894	-0.162534	0.335243	-0.337439	0	0	-0.131922	0.0327571	0.0821345	-0.0220939	-0.287835	0.185716	0.818028	1.5708	0	0	-0.106663	-0.27886	0.387789	0.663041	1.5708	0	0
1.72	-0.212593	1.49064	-1.28175	0.734087	0.400948	0.931726	-0.312762	-0.00406113	-0.188913	0.603938	-0.256352	0	0	0.202455	-0.015287	-0.160225	0.342421	-0.336711	0	0	-0.131397	0.029662	0.0801811	-0.0315045	-0.286033	0.185382	0.815507	1.5708	0	0	-0.104766	-0.27862	0.393831	0.657277	1.5708	0	0
1.73	-0.170511	1.4889	-1.32015	0.735874	0.389854	0.933506	-0.300186	-0.0142996	-0.189373	0.646532	-0.290931	0	0	0.190128	-0.0107835	-0.158194	0.347168	-0.333551	0	0	-0.131371	0.0265957	0.0774045	-0.0401226	-0.285031	0.187581	0.812705	1.5708	0	0	-0.101964	-0.278833	0.400684	0.65253	1.5708	0	0
1.74	-0.132947	1.48647	-1.35421	0.737628	0.379104	0.93534	-0.284812	-0.024449	-0.188806	0.691394	-0.329344	0	0	0.176747	-0.00637847	-0.157491	0.351003	-0.329492	0	0	-0.13256	0.0241352	0.0744785	-0.0478931	-0.284193	0.189296	0.811032	1.5708	0	0	-0.0982899	-0.27919	0.407866	0.649073	1.5708	0	0
1.75	-0.0993477	1.48379	-1.38399	0.739372	0.368681	0.93712	-0.266587	-0.0344242	-0.188254	0.738071	-0.372419	0	0	0.162703	-0.00177487	-0.156924	0.353959	-0.324416	0	0	-0.134522	0.0221057	0.0710879	-0.0551914	-0.283539	0.189981	0.810943	1.5708	0	0	-0.0937374	-0.279965	0.415922	0.64735	1.56947	0	0
1.76	-0.0696531	1.4822	-1.4114	0.741015	0.358344	0.938705	-0.244547	-0.0449053	-0.186002	0.786453	-0.417963	0	0	0.149084	0.00213984	-0.161193	0.356554	-0.318223	0	0	-0.135169	0.0200963	0.0689542	-0.0623714	-0.284209	0.193004	0.811394	1.5708	0	0	-0.0887751	-0.281287	0.426447	0.646825	1.56607	0	0
1.77	-0.0386303	1.48155	-1.44114	0.74258	0.348103	0.940039	-0.219735	-0.0561171	-0.1831	0.836098	-0.459204	0	0	0.135696	0.00602189	-0.168671	0.358016	-0.311664	0	0	-0.134553	0.0175005	0.0680853	-0.0697392	-0.285983	0.197656	0.812505	1.5708	0	0	-0.0834754	-0.284038	0.44	0.647374	1.56565	0	0
1.78	-0.0121276	1.48175	-1.46696	0.744063	0.338125	0.941165	-0.192441	-0.0669445	-0.179021	0.886984	-0.492464	0	0	0.123091	0.00925648	-0.176431	0.358719	-0.305153	0	0	-0.133305	0.0154088	0.0672655	-0.0765656	-0.287741	0.200808	0.814847	1.5708	0	0	-0.0776855	-0.286301	0.451646	0.649405	1.56196	0	0
1.79	0.00630197	1.48158	-1.48486	0.745405	0.328473	0.942247	-0.164568	-0.076279	-0.173985	0.937561	-0.516713	0	0	0.11021	0.0113426	-0.182413	0.358376	-0.299487	0	0	-0.133034	0.0142261	0.0654416	-0.0817929	-0.289387	0.203875	0.817268	1.5708	0	0	-0.0716445	-0.288321	0.460736	0.653249	1.55514	0	0
1.8	0.0173987	1.48087	-1.4954	0.74659	0.319154	0.943334	-0.136185	-0.0842357	-0.169224	0.987078	-0.539879	0	0	0.0970875	0.0122934	-0.185962	0.356871	-0.294453	0	0	-0.133618	0.0133652	0.0635139	-0.0853961	-0.291179	0.208191	0.818539	1.5708	0	0	-0.0641468	-0.291515	0.473099	0.656637	1.55174	0	0
1.81	0.0212815	1.47982	-1.49899	0.747649	0.31013	0.944484	-0.107079	-0.0913777	-0.164905	1.03562	-0.561366	0	0	0.0838865	0.0120401	-0.188052	0.354006	-0.291003	0	0	-0.134826	0.0132179	0.061879	-0.0876541	-0.293101	0.21286	0.81873	1.5708	0	0	-0.0548453	-0.293784	0.485223	0.65833	1.55048	0	0
